# xmcd
#
# Track frame offsets:
#	150
#	18450
#	37275
#	57300
#	74625
#	84225
#	103312
#	120262
#	134850
#	154087
#	169350
#	188512
#	202050
#	216300
#	229950
#	245175
#	259612
#	278137
#	297450
#	313687
#	323125
#
# Disc length: 4567 seconds
#
# Revision: 3
# Processed by: cddbd v1.5.2PL0 Copyright (c) Steve Scherf et al.
# Submitted via: audiograbber 1.83.01
#
DISCID=5211d515
DTITLE=Various Artist - Real Australian Blues Volume 2
DYEAR=1993
DGENRE=Blues
TTITLE0=Whose Muddy Shoes - Gasoline
TTITLE1=Matt Taylor's Chain - Mighty Time
TTITLE2=Steve Tallis and the Zombi Party - Serve Nobody 
TTITLE3=Mighty Reapers - You Gotta Reap
TTITLE4=Chris Finnen - Celtic Blues
TTITLE5=Tinsley Waterhouse Band - I've Lost My Dream
TTITLE6=Lil'Fi and the Delta Rhythm Kings - Wise Up
TTITLE7=Marlon B. Rando - Boogie All Night Long
TTITLE8=Howlin' Time - Howlin' Time
TTITLE9=Carson Taylor Band - Do It Right
TTITLE10=Johnno's Blues Band - Cape Tribulation
TTITLE11=The Blues Preachers - Ringing for Blues
TTITLE12=Hipshot Blues Band - When My Baby
TTITLE13=Johnny Gray's Rockinitis - Tweed Heads Jail
TTITLE14=The Barflys - Mulloway
TTITLE15=G. Men - Take It Easy
TTITLE16=Doc Span and Ross Williams - Take a Walk
TTITLE17=The Gwyn Ashton Band - We'll Find a Way
TTITLE18=Blind Freddy - No Woman Blues
TTITLE19=Greg Baker - Hot to Trot
TTITLE20=Geoff Achison - Don't Play Guitar Boy
EXTD=
EXTT0=
EXTT1=
EXTT2=
EXTT3=
EXTT4=
EXTT5=
EXTT6=
EXTT7=
EXTT8=
EXTT9=
EXTT10=
EXTT11=
EXTT12=
EXTT13=
EXTT14=
EXTT15=
EXTT16=
EXTT17=
EXTT18=
EXTT19=
EXTT20=
PLAYORDER=
